# xmcd
#
# Track frame offsets:
#	150
#	24423
#	46560
#	66832
#	86111
#	106851
#	123241
#	149606
#	168079
#	190299
#	207664
#	238266
#	261585
#	279438
#	301866
#
# Disc length: 4489 seconds
#
# Revision: 0
# Processed by: cddbd v1.5.1PL0 Copyright (c) Steve Scherf et al.
# Submitted via: dBpowerAMP V4.0
#
DISCID=d711870f
DTITLE=Tempa and The Tantrums - Foo Ya Live
DYEAR=2002
DGENRE=Blues
TTITLE0=Shaky Ground
TTITLE1=Knock On Wood
TTITLE2=Rockin' Chair
TTITLE3=Young Woman Blues
TTITLE4=You Lost Me
TTITLE5=Tear It Up
TTITLE6=Chain Of Fools
TTITLE7=VooDoo Woman
TTITLE8=Here I Go Again
TTITLE9=Tonight's The Night
TTITLE10=Fries With That
TTITLE11=Spooky
TTITLE12=Can't Let Go
TTITLE13=Damn Your Eyes
TTITLE14=Mojo
EXTD=
EXTT0=
EXTT1=
EXTT2=
EXTT3=
EXTT4=
EXTT5=
EXTT6=
EXTT7=
EXTT8=
EXTT9=
EXTT10=
EXTT11=
EXTT12=
EXTT13=
EXTT14=
PLAYORDER=
